<?xml version="1.0" encoding="UTF-8"?>
<svg width="593px" height="593px" viewBox="0 0 593 593" version="1.1" xmlns="http://www.w3.org/2000/svg" xmlns:xlink="http://www.w3.org/1999/xlink">
    <title>Copado Logo Symbol_Blue</title>
    <defs>
        <polygon id="path-1" points="0 0.611 592.389 0.611 592.389 592.94 0 592.94"></polygon>
    </defs>
    <g id="Commit-Data-Changes-in-US" stroke="none" stroke-width="1" fill="none" fill-rule="evenodd">
        <g id="Copado-Logo-Symbol_Blue">
            <g id="Group-3">
                <mask id="mask-2" fill="white">
                    <use xlink:href="#path-1"></use>
                </mask>
                <g id="Clip-2"></g>
                <path d="M592.389,296.805 C592.389,460.389 459.778,593 296.194,593 C132.611,593 0,460.389 0,296.805 C0,133.222 132.611,0.611 296.194,0.611 C459.778,0.611 592.389,133.222 592.389,296.805" id="Fill-1" fill="#00B2D7" mask="url(#mask-2)"></path>
            </g>
            <path d="M410.208,183.729 C375.466,183.729 344.401,199.231 323.487,223.559 L323.487,223.492 L323.159,223.916 C320.664,226.843 318.301,229.879 316.112,233.049 L291.512,264.926 L291.512,264.925 L238.208,333.996 L238.208,333.997 L228.68,346.341 L228.675,346.336 C216.75,358.347 200.398,365.404 182.49,365.404 C146.156,365.404 116.4,336.899 116.4,296.805 C116.4,256.712 146.156,228.207 182.49,228.207 C206.421,228.207 227.528,240.834 239.041,261.034 L270.226,225.086 C249.367,199.86 217.788,183.729 182.49,183.729 C119.533,183.729 68.475,234.473 68.475,296.805 C68.475,359.137 119.533,409.88 182.49,409.88 C211.756,409.88 238.37,398.681 258.547,380.519 L354.415,259.134 L354.361,259.334 C366.098,240.129 386.755,228.207 410.208,228.207 C446.233,228.207 475.991,256.712 475.991,296.805 C475.991,336.899 446.233,365.404 410.208,365.404 C373.875,365.404 344.119,336.899 344.119,296.806 L306.434,343.279 C324.327,382.477 363.998,409.88 410.208,409.88 C472.856,409.88 523.913,359.137 523.913,296.805 C523.913,234.473 472.856,183.729 410.208,183.729" id="Fill-4" fill="#FFFFFE"></path>
            <path d="M428.815,299.507 C428.815,309.868 420.415,318.266 410.055,318.266 C399.695,318.266 391.296,309.868 391.296,299.507 C391.296,289.147 399.695,280.749 410.055,280.749 C420.415,280.749 428.815,289.147 428.815,299.507" id="Fill-5" fill="#FFFFFE"></path>
        </g>
    </g>
</svg>